<svg xmlns="http://www.w3.org/2000/svg" xml:space="preserve" width="58" height="58" style="enable-background:new 0 0 595.276 595.276" viewBox="0 0 595.276 595.276"><path d="m390.153 417.975-42.52 59.665c-32.73-2.721-65.183-2.756-97.907-.084l-43.215-59.617c61.791-10.355 121.848-10.342 183.642.036zm-134.238 69.769 43.206 65.396 42.437-65.329a582.494 582.494 0 0 0-85.643-.067zm153.866-329.006c0-8.265-7.495-14.779-16.059-13.116-5.207 1.011-9.426 5.248-10.436 10.455-1.184 6.104 1.812 11.571 6.581 14.265V309.99c0 10.591-9.279 18.727-19.793 17.453l-.356-.043c-8.835-1.065-15.456-8.579-15.456-17.477v-40.475h2.851c11.992 0 21.713-9.721 21.713-21.713V130.23c4.787-2.685 7.8-8.157 6.62-14.272-1.006-5.212-5.226-9.455-10.436-10.467-8.565-1.664-16.061 4.85-16.061 13.116 0 4.804 2.554 8.983 6.357 11.342v33.41a7.099 7.099 0 0 1-7.099 7.099h-22.139a5.467 5.467 0 0 1-5.467-5.467V97.029c4.597-2.776 7.426-8.183 6.219-14.18-1.039-5.165-5.245-9.351-10.417-10.355-8.564-1.662-16.059 4.852-16.059 13.116 0 4.958 2.728 9.237 6.736 11.547v64.964c0 11.992 9.721 21.713 21.713 21.713h26.512v66.769a5.467 5.467 0 0 1-5.466 5.467h-.111a5.466 5.466 0 0 1-5.466-5.467v-15.158c4.321-2.853 6.9-8.13 5.75-13.906-1.04-5.224-5.361-9.456-10.603-10.405-8.488-1.536-15.877 4.944-15.877 13.15 0 5.151 2.943 9.569 7.21 11.804v69.897c0 10.011-8.34 17.967-18.342 17.555l-.356-.015c-9.45-.384-16.904-8.145-16.904-17.603V66.955c4.62-2.766 7.471-8.18 6.268-14.191-1.035-5.171-5.243-9.363-10.42-10.368-8.563-1.662-16.058 4.852-16.058 13.116 0 4.939 2.708 9.205 6.69 11.522v137.864a6.136 6.136 0 0 1-6.136 6.136h-.124a6.136 6.136 0 0 1-6.136-6.136v-34.334c4.154-2.921 6.591-8.121 5.406-13.803-1.078-5.169-5.37-9.334-10.565-10.279-8.493-1.545-15.889 4.938-15.889 13.148 0 5.28 3.086 9.802 7.528 11.977v31.091c0 11.992 9.721 21.713 21.713 21.713h4.203v81.547c0 9.435-7.439 17.177-16.866 17.553l-.356.014c-10.026.407-18.383-7.569-18.383-17.603v-48.546c4.438-2.849 7.102-8.217 5.875-14.11-1.067-5.123-5.263-9.254-10.401-10.25-8.562-1.659-16.054 4.854-16.054 13.117 0 5.09 2.875 9.462 7.059 11.723v52.056c0 8.886-6.613 16.389-15.436 17.449l-.356.043c-10.526 1.272-19.813-6.874-19.813-17.476v-93.321h3.976c11.992 0 21.713-9.721 21.713-21.713v-52.629c4.784-2.687 7.794-8.157 6.613-14.27-1.007-5.211-5.226-9.453-10.436-10.466-8.565-1.664-16.061 4.85-16.061 13.116 0 4.807 2.557 8.987 6.364 11.345v55.216a6.023 6.023 0 0 1-6.023 6.023h-.122a6.023 6.023 0 0 1-6.023-6.023V167.6c3.831-2.891 6.102-7.742 5.137-13.106-.945-5.25-5.087-9.55-10.312-10.625-8.631-1.776-16.22 4.767-16.22 13.084 0 5.421 3.239 10.064 7.875 12.165L193 392.833c71.052-12.333 139.412-12.333 210.464 0V332.42l-.075-.012V170.099c3.821-2.355 6.392-6.542 6.392-11.361z"/></svg>